<?xml version="1.0" encoding="UTF-8" standalone="no"?>
<svg
	xmlns:svg="http://www.w3.org/2000/svg"
	xmlns="http://www.w3.org/2000/svg"
	xmlns:xlink="http://www.w3.org/1999/xlink"
	version="1.0"
	width="424" height="424" viewBox="-2 -2 424 424">
	<title>Number Link Puzzle Solution</title>
	<polygon id="WhiteBackground"
		points="0,0 420,0 420,420 0,420"
		style="fill:#ffffff;stroke:none" />
	<path id="GridHorz"
		d="M 0,60 h 420 m -420,60 h 420 m -420,60 h 420 m -420,60 h 420 m -420,60 h 420 m -420,60 h 420"
		style="fill:none;stroke:#808080;stroke-width:2;stroke-linecap:square;stroke-dasharray:2,4;stroke-dashoffset:0" />
	<use xlink:href="#GridHorz" transform="matrix(0,1,-1,0,420,0)" />
	<polygon id="Borderline" points="0,0 420,0 420,420 0,420"
		style="fill:none;stroke:#000000;stroke-width:4" />
	<g id="Connectors" style="fill:none;stroke:#0000cc;stroke-width:5;stroke-linecap:round;stroke-linejoin:bevel">
		<polyline points="270,175 270,270 150,270 150,305" />
		<polyline points="245,90 150,90 150,30 30,30 30,365" />
		<polyline points="185,150 90,150 90,115" />
		<polyline points="235,30 390,30 390,390 295,390" />
		<polyline points="330,115 330,330 210,330 210,390 90,390 90,210 185,210" />
	</g>
	<g id="Numbers" style="font-size:42px;text-align:center;text-anchor:middle;fill:#000000;stroke:none;font-family:Arial,sans,sans-serif">
		<text x="270.5" y="165.1">1</text>
		<text x="150.5" y="345.1">2</text>
		<text x="270.5" y="105.1">3</text>
		<text x="30.5" y="405.1">4</text>
		<text x="90.5" y="105.1">5</text>
		<text x="210.5" y="165.1">6</text>
		<text x="210.5" y="45.1">7</text>
		<text x="270.5" y="405.1">8</text>
		<text x="330.5" y="105.1">9</text>
		<text x="210.5" y="225.1">10</text>
	</g>
</svg>
