<?xml version="1.0" encoding="UTF-8" standalone="no"?>
<svg
	xmlns:svg="http://www.w3.org/2000/svg"
	xmlns="http://www.w3.org/2000/svg"
	xmlns:xlink="http://www.w3.org/1999/xlink"
	version="1.0"
	width="364" height="364" viewBox="-2 -2 780 64">
	<title>Number Link Puzzle</title>
	<polygon id="WhiteBackground"
		points="0,0 724,0 724,64 0,64"
		style="fill:#ffffff;stroke:none" />
	<polygon id="Borderline" points="0,0 720,0 720,60.1 0,60.1"
		style="fill:none;stroke:#000000;stroke-width:4" />
	<g id="Connectors" style="fill:none;stroke:#000000;stroke-width:2;stroke-linecap:round;stroke-linejoin:bevel">
		<polyline points="0,0 60.5,60.1" />
    <polyline points="60.5,0 120.5,60.1" />
    <polyline points="120.5,0 180.5,60.1" />
		<polyline points="180.5,0 240.5,60.1" />
    <polyline points="240.5,0 300.5,60.1" />
     <polyline points="540.5,0 600.5,60.1" />
	</g>
<g id="Gridsep" style="fill:none;stroke:#000000;stroke-width:4;stroke-linecap:round;stroke-linejoin:bevel" >
    <polyline points="60.5,0 60.5,60.1" />
<polyline points="120.5,0 120.5,60.1" />
    <polyline points="180.5,0 180.5,60.1" />
<polyline points="240.5,0 240.5,60.1" />
<polyline points="300.5,0 300.5,60.1" />
<polyline points="360.5,0 360.5,60.1" />
    <polyline points="420.5,0 420.5,60.1" />
<polyline points="480.5,0 480.5,60.1" />
<polyline points="540.5,0 540.5,60.1" />
<polyline points="600.5,0 600.5,60.1" />
<polyline points="660.5,0 660.5,60.1" />
	</g>
	<g id="Ecc" style="fill:none;stroke:#000000;stroke-width:2;stroke-width:3;stroke-linecap:square;stroke-dasharray:7;stroke-dashoffset:2">
<polyline points="740,61 780,61" />
   </g>
</svg>
