<?xml version="1.0" encoding="UTF-8" standalone="no"?>
<svg
	xmlns:svg="http://www.w3.org/2000/svg"
	xmlns="http://www.w3.org/2000/svg"
	xmlns:xlink="http://www.w3.org/1999/xlink"
	version="1.0"
	width="364" height="364" viewBox="-2 -2 304 304">
	<title>Number Link Puzzle</title>
	<polygon id="WhiteBackground"
		points="0,0 420,0 420,420 0,420"
		style="fill:#ffffff;stroke:none" />
	<path id="GridHorz"
		d="M 0,60 h 300 m -300,60 h 300 m -300,60 h 300 m -300,60 h 300 m -300,60 h 300"
		style="fill:none;stroke:#808080;stroke-width:2;stroke-linecap:square;stroke-dasharray:2,4;stroke-dashoffset:0" />
	<use xlink:href="#GridHorz" transform="matrix(0,1,-1,0,300,0)" />
	<polygon id="Borderline" points="0,0 300,0 300,300 0,300"
		style="fill:none;stroke:#000000;stroke-width:4" />
	<g id="Connectors" style="fill:none;stroke:#000000;stroke-width:2;stroke-linecap:round;stroke-linejoin:bevel">
		<polyline points="0,0 60.5,60.1" />
    <polyline points="60.5,0 120.5,60.1" />
    <polyline points="120.5,0 180.5,60.1" />
		<polyline points="180.5,0 240.5,60.1" />
    <polyline points="240.5,0 300.5,60.1" />
	<polyline points="240.5,60.1 300.5,120.1" />
<polyline points="240.5,120.1 300.5,180.1" />
<polyline points="240.5,180.1 300.5,240.1" />
		<polyline points="0,240.1 60.5,300.1" />
    <polyline points="60.5,240.1 120.5,300.1" />
    <polyline points="120.5,240.1 180.5,300.1" />
		<polyline points="180.5,240.1 240.5,300.1" />
    <polyline points="240.5,240.1 300.5,300.1" />
	</g>
	<g id="Contornobordi" style="fill:none;stroke:#808080;stroke-width:3;stroke-linecap:square;stroke-dasharray:2,4;stroke-dashoffset:0">
		<polyline points="0,60.1 240.5,60.1 240.5,240.1 0,240.1" />
	</g>
</svg>
