<?xml version="1.0" encoding="UTF-8" standalone="no"?>
<svg
	xmlns:svg="http://www.w3.org/2000/svg"
	xmlns="http://www.w3.org/2000/svg"
	xmlns:xlink="http://www.w3.org/1999/xlink"
	version="1.0"
	width="424" height="424" viewBox="-2 -2 424 364">
	<title>Number Link Puzzle</title>
	<polygon id="WhiteBackground"
		points="0,0 420,0 420,360 0,360"
		style="fill:#ffffff;stroke:none" />
	<path id="GridHorz"
		d="M 0,60 h 300 m -300,0 h 300 m -300,60 h 300 m -300,60 h 300 m -300,60 h 300"
		style="fill:none;stroke:#808080;stroke-width:2;stroke-linecap:square;stroke-dasharray:2,4;stroke-dashoffset:0" />
	<use xlink:href="#GridHorz" transform="matrix(0,0.8,-1,0,300,0)" />
	<polygon id="Borderline" points="0,0 300,0 300,240 0,240"
		style="fill:none;stroke:#000000;stroke-width:4" />
	<g id="Connectors" style="fill:none;stroke:#0000cc;stroke-width:5;stroke-linecap:round;stroke-linejoin:bevel;display:none">
		<polyline points="40.5,30.1 150.5,30.1 150.5,90.1" />
	</g>
	<g id="Numbers" style="font-size:42px;text-align:center;text-anchor:middle;fill:#000000;stroke:none;font-family:Arial,sans,sans-serif">
		<text x="30.5" y="45.1">1</text>
		<text x="270.5" y="45.1">2</text>
		<text x="30.5" y="165.1">3</text>
		<text x="270.5" y="165.1">4</text>
		<text x="30.5" y="225.1">5</text>
		<text x="270.5" y="225.1">6</text>
	</g>
<g id="Sep" style="fill:none;stroke:#808080;stroke-width:2;stroke-linecap:square;stroke-dasharray:2,4;stroke-dashoffset:0">
<polyline points="60.5,300 60.5,360" />
<polyline points="120.5,300 120.5,360" />
<polyline points="180.5,300 180.5,360" />
<polyline points="240.5,300 240.5,360" />
<polyline points="360.5,60.1 420.5,60.1" />
<polyline points="360.5,120.1 420.5,120.1" />
<polyline points="360.5,180.1 420.5,180.1" />
</g>
	<polygon id="Borderlinex" points="0,300 300,300 300,360 0,360"
		style="fill:none;stroke:#000000;stroke-width:4" />
<polygon id="Borderliney" points="360,0 420,0 420,240 360,240"
		style="fill:none;stroke:#000000;stroke-width:4" />
</svg>
